<svg width="18" height="20" viewBox="0 0 18 20" fill="none" xmlns="http://www.w3.org/2000/svg">
<path fill-rule="evenodd" clip-rule="evenodd" d="M9.8101 0.0178851C9.76616 0.0273917 9.68318 0.0582137 9.62572 0.0863867L9.52123 0.137608L8.20418 1.46377L6.88715 2.78994L6.83568 2.89611C6.76337 3.04533 6.73793 3.19706 6.75974 3.34915C6.77686 3.4685 6.8114 3.56617 6.87185 3.66606C6.89719 3.70795 7.36581 4.19049 8.2038 5.0376C9.59336 6.44229 9.54934 6.40137 9.73635 6.46182C9.85138 6.499 10.0425 6.50679 10.1575 6.47899C10.3808 6.42502 10.5865 6.26136 10.6802 6.06304C10.746 5.92403 10.7627 5.84779 10.7617 5.69264C10.7609 5.58174 10.7554 5.54716 10.7242 5.45691C10.704 5.39875 10.6661 5.31798 10.64 5.27743C10.6103 5.23147 10.3654 4.97407 9.98962 4.59407C9.42998 4.0281 9.38962 3.98444 9.42589 3.98444C9.44739 3.98444 9.55231 3.99561 9.65905 4.00925C11.0505 4.18706 12.3413 4.76289 13.4225 5.68808C13.6378 5.87227 14.0654 6.30679 14.2432 6.52199C14.6468 7.01055 14.9253 7.44 15.1943 7.98881C15.5984 8.81325 15.8381 9.68023 15.9117 10.584C15.943 10.9689 15.9351 11.5959 15.8941 11.9684C15.7359 13.4074 15.1762 14.7224 14.2429 15.8479C14.0128 16.1254 13.5897 16.5439 13.2827 16.7975C12.3106 17.6009 11.0791 18.1493 9.82854 18.3357C9.42411 18.396 9.22132 18.41 8.75295 18.41C8.28458 18.41 8.08179 18.396 7.67735 18.3357C6.42715 18.1493 5.19502 17.6007 4.22315 16.7975C3.9114 16.5399 3.49054 16.1229 3.2556 15.8388C2.25945 14.6341 1.69102 13.2131 1.58617 11.6652C1.56941 11.4177 1.57374 10.8354 1.59422 10.584C1.66738 9.68596 1.90656 8.81723 2.30535 8.00119C2.68017 7.23421 3.08841 6.66649 3.72757 6.0234C4.03859 5.71046 4.04577 5.7021 4.09934 5.59017C4.1669 5.44899 4.18453 5.36006 4.17763 5.1953C4.17108 5.03869 4.13326 4.92128 4.04969 4.79813C3.79111 4.41704 3.2725 4.33431 2.91327 4.61685C2.81915 4.69087 2.40983 5.09954 2.24489 5.28416C1.00217 6.6752 0.234426 8.41309 0.0439283 10.2664C-0.0100358 10.7914 -0.0146334 11.4609 0.0320905 11.9932C0.23949 14.3563 1.4204 16.5639 3.28277 18.0698C5.06179 19.5083 7.31685 20.1804 9.61957 19.9584C12.4453 19.6861 14.9914 18.0087 16.392 15.4967C17.0024 14.4019 17.3548 13.247 17.4818 11.9251C17.4996 11.7393 17.5068 10.8023 17.492 10.5944C17.3591 8.73155 16.6829 7.01424 15.5203 5.58743C15.1493 5.13218 14.6811 4.66793 14.2067 4.28499C12.9403 3.26284 11.3837 2.61151 9.76095 2.42478C9.64264 2.41116 9.53497 2.40002 9.52167 2.40002C9.50545 2.40002 9.68382 2.21171 10.064 1.82753C10.6209 1.26475 10.6313 1.25325 10.6815 1.14982C10.7977 0.910087 10.7973 0.667163 10.6804 0.431877C10.5221 0.113396 10.1615 -0.0581175 9.8101 0.0178851Z" fill="#8DA05E"/>
</svg>
