<svg width="21" height="21" viewBox="0 0 21 21" fill="none" xmlns="http://www.w3.org/2000/svg">
<path d="M17.8576 0.5L14.7408 3.61686C14.1604 4.19727 14.043 5.06756 14.3875 5.76586L13.3657 6.78774C12.7049 6.47297 11.8905 6.58451 11.3389 7.12235C11.0186 6.85857 10.6203 6.71512 10.2 6.71512C9.7203 6.71512 9.26937 6.90191 8.93022 7.24106C8.84187 7.32941 8.76409 7.4255 8.69705 7.52758C8.44896 7.40192 8.17326 7.33496 7.8871 7.33496C7.40745 7.33496 6.95652 7.52175 6.61737 7.86095C6.5281 7.95017 6.45041 8.04662 6.38388 8.14834C5.71037 7.80859 4.86606 7.91917 4.30428 8.48095C4.09398 8.69125 3.94733 8.94125 3.86337 9.20698C3.2946 9.09405 2.6813 9.25738 2.24139 9.69733C1.80148 10.1372 1.63819 10.7505 1.75108 11.3193C1.48535 11.4032 1.23531 11.5499 1.02501 11.7602C0.348579 12.4367 0.325833 13.5229 0.956531 14.2271C0.325833 14.9313 0.348579 16.0176 1.02501 16.694C1.2361 16.9052 1.48731 17.0522 1.75419 17.1359C1.6425 17.7038 1.80607 18.3156 2.24518 18.7548C2.58437 19.0939 3.0353 19.2807 3.51496 19.2807C3.63359 19.2807 3.75048 19.2692 3.86432 19.2469C3.9482 19.5133 4.09506 19.7641 4.30587 19.9749C4.65596 20.325 5.11578 20.5 5.57565 20.5C6.00439 20.5 6.43301 20.3477 6.77284 20.0434C7.11263 20.3477 7.54125 20.5 7.96995 20.5C8.42977 20.5 8.88964 20.325 9.23972 19.9749C9.45002 19.7646 9.59667 19.5145 9.68063 19.2488C9.79683 19.2719 9.91483 19.2836 10.0328 19.2836C10.4927 19.2836 10.9525 19.1086 11.3026 18.7585C11.7426 18.3186 11.9059 17.7053 11.793 17.1365C12.0587 17.0526 12.3087 16.9059 12.519 16.6956C13.0808 16.1338 13.1913 15.2896 12.8516 14.6161C12.9533 14.5495 13.0498 14.4718 13.139 14.3826C13.4782 14.0434 13.665 13.5925 13.665 13.1128C13.665 12.8266 13.598 12.5509 13.4724 12.3028C13.5744 12.2358 13.6705 12.158 13.7589 12.0697C14.0981 11.7305 14.2848 11.2796 14.2848 10.7999C14.2848 10.3796 14.1414 9.98134 13.8776 9.66098C14.4155 9.10937 14.527 8.29495 14.2122 7.63421L15.234 6.61236C15.4941 6.74069 15.7779 6.80542 16.062 6.80542C16.5404 6.80542 17.0188 6.62329 17.383 6.25904L20.4999 3.14223L17.8576 0.5ZM18.8068 3.14223L17.8576 4.09144L16.9084 3.14223L17.8576 2.19301L18.8068 3.14223ZM12.1687 7.98473C12.2854 7.86805 12.4387 7.80971 12.592 7.80971C12.7453 7.80971 12.8985 7.86805 13.0152 7.98473C13.2487 8.21813 13.2487 8.59787 13.0152 8.83123C12.7818 9.0646 12.4021 9.0646 12.1687 8.83127C12.0557 8.71818 11.9934 8.5679 11.9934 8.408C11.9934 8.2481 12.0557 8.09778 12.1687 7.98473ZM12.046 12.5408C12.1381 12.5691 12.2224 12.6196 12.2924 12.6896C12.4055 12.8026 12.4677 12.9529 12.4677 13.1128C12.4677 13.2727 12.4054 13.423 12.2924 13.5361C12.059 13.7694 11.6793 13.7694 11.4459 13.536C11.3329 13.423 11.2706 13.2727 11.2706 13.1128C11.2706 12.9529 11.3329 12.8026 11.4459 12.6895C11.559 12.5765 11.7093 12.5142 11.8692 12.5142C11.9264 12.5142 11.9823 12.5225 12.0358 12.5379C12.0393 12.5389 12.0426 12.5399 12.046 12.5408ZM8.76302 16.219C8.55272 16.4293 8.40607 16.6794 8.32211 16.9451C7.78395 16.8383 7.20608 16.9789 6.77276 17.3669C6.34027 16.9796 5.7638 16.8387 5.22652 16.9444C5.14272 16.6775 4.99575 16.4264 4.78465 16.2153C4.57719 16.0079 4.32782 15.8577 4.05571 15.7722C4.16094 15.2352 4.01999 14.6593 3.63296 14.2271C4.02103 13.7938 4.16162 13.216 4.05475 12.6778C4.32052 12.5938 4.57052 12.4471 4.78082 12.2368C4.99112 12.0265 5.13773 11.7765 5.22169 11.5108C5.33789 11.5338 5.45589 11.5456 5.57393 11.5456C6.03376 11.5456 6.49358 11.3705 6.84367 11.0205C6.93274 10.9314 7.01035 10.8351 7.07679 10.7337C7.32492 10.8594 7.6007 10.9264 7.88698 10.9264C8.36664 10.9264 8.81761 10.7396 9.15676 10.4005C9.24579 10.3114 9.32336 10.2153 9.38972 10.1138C9.63785 10.2396 9.91364 10.3066 10.1999 10.3066C10.4052 10.3066 10.6053 10.2721 10.7936 10.2063C10.7278 10.3946 10.6933 10.5946 10.6933 10.8C10.6933 11.0862 10.7603 11.362 10.886 11.6101C10.7846 11.6765 10.6884 11.7541 10.5994 11.8431C10.2603 12.1823 10.0735 12.6332 10.0735 13.1129C10.0735 13.3991 10.1405 13.6749 10.2662 13.9231C10.1647 13.9895 10.0684 14.0671 9.97936 14.1562C9.53945 14.5961 9.37616 15.2094 9.48909 15.7782C9.22336 15.8621 8.97332 16.0087 8.76302 16.219ZM12.9123 11.2232C12.7992 11.3363 12.6489 11.3985 12.489 11.3985C12.3292 11.3985 12.1788 11.3363 12.0658 11.2232C11.9527 11.1102 11.8904 10.9598 11.8904 10.8C11.8904 10.6401 11.9527 10.4898 12.0658 10.3767H12.0658C12.1789 10.2637 12.3292 10.2014 12.4891 10.2014C12.649 10.2014 12.7992 10.2637 12.9123 10.3767C13.0254 10.4898 13.0876 10.6401 13.0876 10.8C13.0876 10.9598 13.0253 11.1101 12.9123 11.2232ZM9.77668 8.08757C9.88973 7.97452 10.0401 7.91226 10.1999 7.91226C10.3598 7.91226 10.5101 7.97452 10.6232 8.08757C10.7362 8.20066 10.7985 8.35094 10.7985 8.51084C10.7985 8.6707 10.7362 8.82102 10.6232 8.93407V8.93411C10.5101 9.04716 10.3598 9.10945 10.1999 9.10945C10.0401 9.10945 9.88973 9.04716 9.77664 8.93411C9.66359 8.82106 9.60134 8.67074 9.60134 8.51088C9.60134 8.35094 9.66359 8.20062 9.77668 8.08757ZM7.46379 8.70741C7.57684 8.59436 7.72716 8.53211 7.88702 8.53211C8.04692 8.53211 8.1972 8.59436 8.31029 8.70741C8.38029 8.77744 8.43073 8.8618 8.45906 8.95382C8.45994 8.95725 8.46098 8.96061 8.46189 8.96404C8.47734 9.01755 8.48564 9.07346 8.48564 9.13068C8.48564 9.29058 8.42335 9.44086 8.31029 9.55395C8.19724 9.667 8.04692 9.72926 7.88702 9.72926C7.72716 9.72926 7.57684 9.667 7.46379 9.55395C7.23039 9.32055 7.23039 8.94081 7.46379 8.70741ZM5.1507 9.32745C5.26738 9.21077 5.4207 9.15243 5.57397 9.15243C5.72725 9.15243 5.88052 9.21077 5.99724 9.32745C6.23065 9.56086 6.23065 9.94059 5.99724 10.174C5.76384 10.4073 5.3841 10.4073 5.15074 10.174C5.03769 10.0609 4.9754 9.91062 4.9754 9.75072C4.97536 9.59083 5.03765 9.4405 5.1507 9.32745ZM3.08781 10.5438C3.20087 10.4308 3.35119 10.3685 3.51109 10.3685C3.67099 10.3685 3.82127 10.4308 3.93432 10.5438C4.16772 10.7772 4.16772 11.157 3.93432 11.3903C3.70091 11.6237 3.32118 11.6237 3.08781 11.3903C2.85441 11.157 2.85441 10.7772 3.08781 10.5438ZM1.87143 12.6067C1.98448 12.4937 2.1348 12.4314 2.2947 12.4314C2.4546 12.4314 2.60488 12.4937 2.71794 12.6067C2.95134 12.8401 2.95134 13.2199 2.71794 13.4532C2.48457 13.6866 2.10484 13.6866 1.87143 13.4532C1.63803 13.2199 1.63803 12.8401 1.87143 12.6067ZM1.87143 15.0011C1.98815 14.8843 2.14139 14.826 2.2947 14.826C2.44798 14.826 2.60129 14.8843 2.71794 15.001C2.95134 15.2344 2.95134 15.6142 2.71794 15.8476C2.60488 15.9606 2.45456 16.0229 2.29466 16.0229C2.13476 16.0229 1.98448 15.9606 1.87143 15.8476C1.63803 15.6142 1.63803 15.2344 1.87143 15.0011ZM3.09161 17.9083C2.97855 17.7953 2.91626 17.645 2.91626 17.4851C2.91626 17.3252 2.97855 17.1749 3.09161 17.0618C3.20466 16.9488 3.35498 16.8865 3.51484 16.8865C3.67474 16.8865 3.82502 16.9488 3.93811 17.0618C4.17147 17.2952 4.17147 17.675 3.93811 17.9083C3.82506 18.0214 3.67474 18.0836 3.51484 18.0836C3.35498 18.0836 3.2047 18.0214 3.09161 17.9083ZM5.99884 19.1284C5.76544 19.3618 5.3857 19.3619 5.1523 19.1285C5.03925 19.0154 4.97695 18.8651 4.97695 18.7052C4.97695 18.5453 5.03925 18.395 5.1523 18.2819C5.38574 18.0485 5.76548 18.0486 5.9988 18.2819C6.2322 18.5153 6.2322 18.8951 5.99884 19.1284ZM8.39314 19.1284C8.15973 19.3618 7.78 19.3618 7.54663 19.1285C7.31323 18.8951 7.31323 18.5153 7.54663 18.2819C7.78 18.0485 8.15973 18.0485 8.39314 18.2819C8.50619 18.395 8.56848 18.5453 8.56848 18.7052C8.56848 18.8651 8.50619 19.0154 8.39314 19.1284ZM10.456 17.912C10.2226 18.1454 9.84288 18.1454 9.60952 17.9121C9.37612 17.6787 9.37612 17.2989 9.60952 17.0655C9.84288 16.8321 10.2226 16.8321 10.456 17.0655C10.5691 17.1786 10.6314 17.3289 10.6314 17.4888C10.6314 17.6487 10.5691 17.799 10.456 17.912ZM11.6724 15.8492C11.5594 15.9622 11.409 16.0245 11.2491 16.0245C11.0892 16.0245 10.939 15.9622 10.8259 15.8492C10.5925 15.6158 10.5925 15.236 10.8259 15.0027C11.0593 14.7692 11.439 14.7692 11.6724 15.0027C11.9058 15.236 11.9058 15.6158 11.6724 15.8492ZM16.0619 5.60915C15.8826 5.60915 15.7141 5.53932 15.5873 5.41258C15.4605 5.2858 15.3907 5.11724 15.3907 4.93795C15.3907 4.75866 15.4605 4.5901 15.5873 4.46332L16.0619 3.98869L17.0111 4.93791L16.5365 5.41254C16.4097 5.53936 16.2412 5.60915 16.0619 5.60915Z" fill="#ABABAB"/>
</svg>
