<svg width="22" height="21" viewBox="0 0 22 21" fill="none" xmlns="http://www.w3.org/2000/svg">
<path d="M21 17.5798V3.72913C21 3.05775 20.5643 2.45401 19.8999 2.20467C17.3964 1.26519 14.6036 1.26519 12.1001 2.20467L11 2.61751L9.89986 2.20467C7.39638 1.26519 4.60362 1.26519 2.10014 2.20467C1.43569 2.45401 1 3.05775 1 3.72913V17.5798C1 18.5017 1.99247 19.1321 2.90485 18.7897C4.89175 18.0441 7.10825 18.0441 9.09515 18.7897L10.9863 19.4994H11.0137L12.9049 18.7897C14.8918 18.0441 17.1082 18.0441 19.0951 18.7897C20.0075 19.1321 21 18.5017 21 17.5798Z" stroke="#8DA05E" stroke-width="1.5"/>
</svg>
