<svg width="180" height="64" viewBox="0 0 180 64" fill="none" xmlns="http://www.w3.org/2000/svg">
<path d="M4.375 60.45C3.12833 59.4867 2.10833 58.2117 1.315 56.625C0.521667 55.0383 0.125 53.1117 0.125 50.845C0.125 48.8617 0.465 46.85 1.145 44.81C1.88167 42.7133 3.21333 40.985 5.14 39.625C7.06667 38.2083 9.84333 37.5 13.47 37.5H15.765L8.2 23.985H4.375L0.125 15.485H14.32L26.645 37.5H36.25V46H31.32L37.185 56.455L30.13 63L20.61 46H13.47C12.7333 46 11.8833 46.1983 10.92 46.595C10.0133 47.0483 9.19167 47.7 8.455 48.55C7.775 49.4567 7.435 50.6467 7.435 52.12C7.435 54.3867 7.97333 56.1717 9.05 57.475C10.1833 58.7783 11.5717 59.685 13.215 60.195C14.915 60.7617 16.6433 60.9883 18.4 60.875C20.2133 60.8183 21.8 60.5917 23.16 60.195C21.5733 61.3283 19.6183 62.15 17.295 62.66C15.0283 63.17 12.7333 63.255 10.41 62.915C8.14333 62.575 6.13167 61.7533 4.375 60.45ZM59.803 63.93C58.443 63.93 57.2813 63.4483 56.318 62.485C55.3546 61.5217 54.873 60.36 54.873 59C54.873 57.64 55.3546 56.4783 56.318 55.515C57.2813 54.5517 58.443 54.07 59.803 54.07C61.163 54.07 62.3246 54.5517 63.288 55.515C64.2513 56.4783 64.733 57.64 64.733 59C64.733 60.36 64.2513 61.5217 63.288 62.485C62.3246 63.4483 61.163 63.93 59.803 63.93ZM45.098 63.93C43.738 63.93 42.5763 63.4483 41.613 62.485C40.6496 61.5217 40.168 60.36 40.168 59C40.168 57.64 40.6496 56.4783 41.613 55.515C42.5763 54.5517 43.738 54.07 45.098 54.07C46.458 54.07 47.6196 54.5517 48.583 55.515C49.5463 56.4783 50.028 57.64 50.028 59C50.028 60.36 49.5463 61.5217 48.583 62.485C47.6196 63.4483 46.458 63.93 45.098 63.93ZM32.6574 46V37.5H58.1574V22.37L66.6574 20.5V37.5H76.8574V46H63.5974C63.4841 46 63.3991 46 63.3424 46C63.2858 46 63.2574 46 63.2574 46H32.6574ZM73.4973 46V37.5H83.6973V16.42L92.1973 14.55V37.5H102.397V46H89.1373C89.0239 46 88.9389 46 88.8823 46C88.8256 46 88.7973 46 88.7973 46H73.4973ZM107.769 63.93C106.409 63.93 105.247 63.4483 104.284 62.485C103.321 61.5217 102.839 60.36 102.839 59C102.839 57.64 103.321 56.4783 104.284 55.515C105.247 54.5517 106.409 54.07 107.769 54.07C109.129 54.07 110.291 54.5517 111.254 55.515C112.217 56.4783 112.699 57.64 112.699 59C112.699 60.36 112.217 61.5217 111.254 62.485C110.291 63.4483 109.129 63.93 107.769 63.93ZM98.9807 46V37.5H109.181V22.37L117.681 20.5V37.5H126.181V18.12L134.681 16.25V37.5H143.181V13.87L151.681 12V37.5H161.881V46H98.9807ZM174.603 9.93C173.243 9.93 172.081 9.44833 171.118 8.485C170.154 7.52167 169.673 6.36 169.673 5C169.673 3.64 170.154 2.47833 171.118 1.515C172.081 0.551667 173.243 0.0699998 174.603 0.0699998C175.963 0.0699998 177.124 0.551667 178.088 1.515C179.051 2.47833 179.533 3.64 179.533 5C179.533 6.36 179.051 7.52167 178.088 8.485C177.124 9.44833 175.963 9.93 174.603 9.93ZM159.898 9.93C158.538 9.93 157.376 9.44833 156.413 8.485C155.449 7.52167 154.968 6.36 154.968 5C154.968 3.64 155.449 2.47833 156.413 1.515C157.376 0.551667 158.538 0.0699998 159.898 0.0699998C161.258 0.0699998 162.419 0.551667 163.383 1.515C164.346 2.47833 164.828 3.64 164.828 5C164.828 6.36 164.346 7.52167 163.383 8.485C162.419 9.44833 161.258 9.93 159.898 9.93ZM158.497 46V37.5H168.697V22.37L177.197 20.5V44.045C177.197 44.725 176.914 45.2067 176.347 45.49C175.781 45.7733 175.214 45.9433 174.647 46C174.081 46 173.797 46 173.797 46H158.497Z" fill="#8DA05E"/>
</svg>
